<svg xmlns="http://www.w3.org/2000/svg" data-name="Layer 1" viewBox="0 0 122.88 53.37">
  <path d="M1.05 7.37a4.49 4.49 0 1 1 6.88-5.76 114.61 114.61 0 0 0 14.88 15C35.48 27 48.63 32.25 61.67 32.24s26.12-5.24 38.7-15.75a112.38 112.38 0 0 0 14.57-14.85 4.48 4.48 0 0 1 6.92 5.69 129.09 129.09 0 0 1-10 10.85l5.91 5.42a4.47 4.47 0 1 1-6 6.6l-6.59-6a86.1 86.1 0 0 1-13.43 9.06l3.73 8A4.48 4.48 0 0 1 87.35 45l-3.74-8a61.24 61.24 0 0 1-17.56 4v7.9a4.48 4.48 0 0 1-8.95 0V41a61.75 61.75 0 0 1-17.52-4l-3.76 8a4.48 4.48 0 1 1-8.11-3.79l3.74-8A88.78 88.78 0 0 1 18 24.2l-6.55 6a4.47 4.47 0 1 1-6-6.6l5.83-5.34A130.63 130.63 0 0 1 1.05 7.37Z"/>
</svg>
